<?xml version="1.0" encoding="UTF-8" standalone="no"?>
<svg
   xmlns:dc="http://purl.org/dc/elements/1.1/"
   xmlns:cc="http://creativecommons.org/ns#"
   xmlns:rdf="http://www.w3.org/1999/02/22-rdf-syntax-ns#"
   xmlns:svg="http://www.w3.org/2000/svg"
   xmlns="http://www.w3.org/2000/svg"
   xmlns:xlink="http://www.w3.org/1999/xlink"
   xmlns:sodipodi="http://sodipodi.sourceforge.net/DTD/sodipodi-0.dtd"
   xmlns:inkscape="http://www.inkscape.org/namespaces/inkscape"
   width="594mm"
   height="841mm"
   inkscape:version="0.92.4 (5da689c313, 2019-01-14)"
   sodipodi:docname="CBF-210806-LogoFormat480mm.svg"
   version="1.1"
   viewBox="0 0 594 840.159"
   id="svg123"
   inkscape:export-filename="C:\Users\jcotes\OneDrive\Documents\Mes documents\01-MesProjets\SiteCbienFee\Images\Logos\LogoCBFok2.png"
   inkscape:export-xdpi="96"
   inkscape:export-ydpi="96"
   shape-rendering="crispEdges">
  <defs
     id="defs24">
    <rect
       x="15.442948"
       y="48.285412"
       width="25.591118"
       height="3.8943005"
       id="rect901" />
    <inkscape:path-effect
       effect="powerstroke"
       end_linecap_type="zerowidth"
       interpolator_beta="0.2"
       interpolator_type="CentripetalCatmullRom"
       is_visible="true"
       linejoin_type="round"
       lpeversion="1"
       miter_limit="4"
       offset_points="3.5,0.31086025"
       scale_width="1"
       sort_points="true"
       start_linecap_type="zerowidth"
       id="path-effect2" />
    <inkscape:path-effect
       effect="powerstroke"
       end_linecap_type="zerowidth"
       interpolator_beta="0.2"
       interpolator_type="CentripetalCatmullRom"
       is_visible="true"
       linejoin_type="round"
       lpeversion="1"
       miter_limit="4"
       offset_points="3.5,0.31086025"
       scale_width="1"
       sort_points="true"
       start_linecap_type="zerowidth"
       id="path-effect4" />
    <rect
       x="7.2151999"
       y="63.926998"
       width="34.348"
       height="11.98"
       id="rect11" />
    <inkscape:path-effect
       effect="powerstroke"
       end_linecap_type="zerowidth"
       interpolator_beta="0.2"
       interpolator_type="CentripetalCatmullRom"
       is_visible="true"
       linejoin_type="round"
       lpeversion="1"
       miter_limit="4"
       offset_points="3.5,0.31086025"
       scale_width="1"
       sort_points="true"
       start_linecap_type="zerowidth"
       id="path-effect13" />
    <rect
       x="8.7501001"
       y="44.286999"
       width="12.889"
       height="2.4335999"
       id="rect15" />
    <rect
       x="26.629"
       y="55.868999"
       width="22.313"
       height="10.939"
       id="rect17" />
    <inkscape:path-effect
       effect="powerstroke"
       end_linecap_type="zerowidth"
       interpolator_beta="0.2"
       interpolator_type="CentripetalCatmullRom"
       is_visible="true"
       linejoin_type="round"
       lpeversion="1"
       miter_limit="4"
       offset_points="3.5,0.31086025"
       scale_width="1"
       sort_points="true"
       start_linecap_type="zerowidth"
       id="path-effect19" />
    <rect
       x="34.396"
       y="50.271"
       width="26.458"
       height="14.552"
       id="rect21" />
  </defs>
  <sodipodi:namedview
     id="base"
     bordercolor="#666666"
     borderopacity="1.0"
     inkscape:current-layer="g121"
     inkscape:cx="1578.994"
     inkscape:cy="1168.7399"
     inkscape:document-rotation="0"
     inkscape:document-units="mm"
     inkscape:guide-bbox="true"
     inkscape:pageopacity="0.0"
     inkscape:pageshadow="2"
     inkscape:snap-center="true"
     inkscape:snap-global="false"
     inkscape:snap-object-midpoints="true"
     inkscape:snap-others="true"
     inkscape:snap-page="false"
     inkscape:window-height="1017"
     inkscape:window-maximized="1"
     inkscape:window-width="1920"
     inkscape:window-x="-8"
     inkscape:window-y="-8"
     inkscape:zoom="0.1767767"
     pagecolor="#ffffff"
     scale-x="1"
     showgrid="true"
     showguides="true"
     viewbox-width="50"
     height="100mm"
     showborder="true"
     inkscape:pagecheckerboard="false"
     width="100mm"
     fit-margin-left="1"
     fit-margin-top="1"
     fit-margin-right="1"
     fit-margin-bottom="1"
     borderlayer="false"
     inkscape:showpageshadow="false">
    <inkscape:grid
       color="#db004c"
       opacity=".12549"
       type="xygrid"
       visible="true"
       id="grid26"
       originx="-7.5583799"
       originy="-8.2633277" />
  </sodipodi:namedview>
  <metadata
     id="metadata31">
    <rdf:RDF>
      <cc:Work
         rdf:about="">
        <dc:format>image/svg+xml</dc:format>
        <dc:type
           rdf:resource="http://purl.org/dc/dcmitype/StillImage" />
        <dc:title />
      </cc:Work>
    </rdf:RDF>
  </metadata>
  <g
     inkscape:groupmode="layer"
     inkscape:label="Calque 1"
     id="g121"
     transform="translate(-7.5583796,-8.2715995)">
    <text
       xml:space="preserve"
       id="text899"
       style="font-size:3.35688px;line-height:1.25;font-family:'Lucida Sans';-inkscape-font-specification:'Lucida Sans, Normal';white-space:pre;shape-inside:url(#rect901);fill:#000000;fill-opacity:1;"
       transform="matrix(1.576367,0,0,1.576367,6.348321,4.4635803)" />
    <text
       transform="matrix(1.5091902,0,0,1.5587993,66.464183,-114.25309)"
       x="-11.96841"
       y="122.11402"
       fill="#806700"
       font-family="sans-serif"
       font-size="25.8409px"
       stroke="#000000"
       stroke-width="0.373812"
       style="font-size:38.8065px;line-height:1.25;white-space:pre;inline-size:25.7889;fill:#000000;fill-opacity:1"
       xml:space="preserve"
       id="text892"
       inkscape:export-filename="C:\Users\jcotes\Pictures\LogoCBF4.png"
       inkscape:export-xdpi="96"
       inkscape:export-ydpi="96" />
    <circle
       style="display:none;opacity:0.486175;fill:#e6e6e6;stroke-width:0.647779"
       id="circle1050"
       cx="42.966713"
       cy="-17.58709"
       transform="matrix(-0.49572225,0.86848112,0.86848112,0.49572225,0,0)"
       r="26.75" />
    <text
       fill="#000000"
       font-family="sans-serif"
       font-size="4.2333px"
       style="line-height:1.25;white-space:pre;shape-inside:url(#rect915);"
       xml:space="preserve"
       id="text33" />
    <ellipse
       style="display:none;opacity:0.486175;fill:#00ec00;fill-opacity:1;stroke:#000000;stroke-width:0.345644;stroke-opacity:1"
       id="path897"
       cx="-69.100822"
       cy="-29.164639"
       transform="matrix(-0.91631223,-0.40046459,0.400466,-0.91631162,0,0)"
       rx="39.827068"
       ry="39.827206" />
    <circle
       style="display:none;opacity:0.486175;fill:#0000ff;fill-opacity:1;stroke:none;stroke-width:1.47029;stroke-opacity:1"
       id="path905"
       cx="16.20117"
       cy="72.265633"
       r="42.650002"
       transform="matrix(-0.5567287,0.83069438,0.83069438,0.5567287,0,0)" />
    <g
       id="g844"
       transform="matrix(1.4556039,0,0,1.4556039,-134.91373,-205.00298)">
      <g
         transform="matrix(1.1450001,0,0,1.1450001,-36.836098,-70.708137)"
         id="g37">
        <circle
           style="opacity:0.10138298;fill:#e3e9ef;fill-opacity:1;stroke:none;stroke-width:1.05454004"
           id="path863"
           cx="300.47006"
           cy="436.44751"
           inkscape:export-filename="C:\Users\jcotes\OneDrive\Documents\Mes documents\01-MesProjets\SiteCbienFee\Images\Logos\LogoCBFok2.png"
           inkscape:export-xdpi="96"
           inkscape:export-ydpi="96"
           r="149.73633" />
        <path
           inkscape:connector-curvature="0"
           id="text920"
           style="font-size:39.20970154px;line-height:1.25;fill:#b6910d;fill-opacity:1;stroke:#000000;stroke-width:1.11817002;stroke-miterlimit:4;stroke-dasharray:none;stroke-opacity:1"
           d="m 275.5046,365.45705 c -12.67737,0 -22.84295,0.87296 -30.49586,2.619 -11.59523,2.61901 -20.44468,7.27543 -26.55159,13.96859 -6.10682,6.62041 -9.1604,14.25939 -9.1604,22.91668 0,7.42069 2.39559,14.07863 7.18832,19.97158 4.7927,5.82006 11.86529,10.14889 21.21871,12.98619 -10.89956,2.1825 -19.05359,5.67434 -24.46472,10.47598 -7.49831,6.69315 -11.24729,14.87737 -11.24729,24.55332 0,7.3479 2.47244,14.40579 7.41965,21.17134 4.94739,6.69309 11.74998,11.60326 20.40782,14.73159 8.58053,3.05568 21.72266,4.5838 39.42482,4.5838 h 7.71925 v 0.13004 h 67.48548 c -0.94994,-4.36484 -3.11587,-4.1679 -6.90786,-4.1679 -0.60856,0 -1.18579,-0.0349 -1.76224,-0.068 -2.64185,-0.34579 -5.2027,-1.1468 -7.68039,-2.41877 -2.47372,-1.30962 -4.09697,-2.87553 -4.86992,-4.69431 -1.005,-2.40082 -1.50738,-7.34694 -1.50738,-14.84048 v -46.4881 h 28.64048 c 5.25636,0 9.19854,0.69116 11.82675,2.0735 2.70552,1.30947 4.79388,3.30921 6.26268,6.00107 1.17521,2.04526 1.92548,4.97238 2.25223,8.78163 0.236,2.80509 1.10419,3.7973 2.40871,3.87644 h 2.0645 v -50.08935 h -2.1023 c -0.83121,0.003 -2.28311,0.96328 -2.62024,2.94055 -1.10862,6.46503 -3.01331,10.90447 -5.71381,13.31902 -3.01477,2.69179 -7.80789,4.03819 -14.37851,4.03819 H 321.721 v -52.0482 c 0.55675,-2.53016 1.33915,-4.38122 2.36883,-5.484 0.20645,-0.21903 0.41987,-0.4292 0.63989,-0.63323 h 31.66071 c 8.19422,0 14.2245,0.72904 18.08963,2.18408 3.94235,1.45501 7.22836,3.81818 9.85644,7.09214 2.70565,3.20098 5.06198,8.25692 7.07182,15.16836 h 4.05899 l -1.69602,-15.12452 c -1.36759,-11.40191 -6.84009,-17.36534 -17.29025,-17.39459 h -33.02788 v -0.13154 z m 2.08692,7.31141 c 6.9044,0 13.1886,0.64398 18.85955,1.92086 0.65375,0.7012 1.15961,1.44919 1.49949,2.24889 0.19126,0.45698 0.35857,1.03522 0.51348,1.67678 v 53.4099 c -2.86019,0.5094 -6.10685,0.91073 -9.74001,1.20177 -3.71051,0.21788 -7.76886,0.32634 -12.17498,0.32634 -11.28615,0 -19.75145,-1.12679 -25.3945,-3.38195 -5.72027,-2.32811 -10.08786,-5.85784 -13.10264,-10.58667 -3.01475,-4.72887 -4.52184,-9.89274 -4.52184,-15.4947 0,-8.65744 3.74898,-16.04246 11.24727,-22.15362 7.49826,-6.11124 18.43604,-9.16747 32.81417,-9.16747 z m 0.3481,68.3152 c 4.79271,0 8.89045,0.0719 12.29191,0.21736 3.40115,0.14567 6.1453,0.40104 8.23253,0.76479 v 57.65031 c -0.28693,1.29339 -0.63033,2.38567 -1.04252,3.23691 -8.61027,1.81494 -17.11503,2.7335 -25.51111,2.7335 -13.9916,0 -24.65939,-2.94643 -32.00303,-8.83928 -7.34373,-5.9657 -11.0159,-13.31484 -11.0159,-22.0449 0,-5.74776 1.66274,-11.2749 4.98675,-16.58569 3.32399,-5.31092 8.7356,-9.49583 16.23396,-12.55138 7.49827,-3.05561 16.77324,-4.58186 27.82741,-4.58186 z"
           sodipodi:nodetypes="sccscccsccscccccccscscccccccccsccccsccccccccsscccccscssssssscccscsssss"
           inkscape:export-filename="C:\Users\jcotes\OneDrive\Documents\Mes documents\01-MesProjets\SiteCbienFee\Images\Logos\LogoCBFok2.png"
           inkscape:export-xdpi="96"
           inkscape:export-ydpi="96" />
        <path
           inkscape:connector-curvature="0"
           id="path867"
           style="opacity:1;fill:#000000;fill-opacity:1;stroke:#b48a00;stroke-width:2.04906011;stroke-miterlimit:4;stroke-dasharray:none;stroke-opacity:1"
           d="m 300.29948,287.3789 c -82.32834,-10e-5 -149.06865,66.74023 -149.06857,149.06857 -8e-5,82.32852 66.74023,149.06843 149.06857,149.06831 53.27083,-4.1e-4 102.49255,-28.42678 129.11668,-74.56738 h -9.58813 c -8.26855,-0.29163 -17.43083,3.59526 -22.89793,9.54398 -24.18707,27.81508 -59.37556,44.02168 -96.62944,44.0217 -70.7289,4e-5 -128.06701,-57.3377 -128.06694,-128.06661 -3.4e-4,-70.59187 57.12298,-127.87237 127.71468,-128.06577 0.1172,-3.3e-4 0.23406,-4e-5 0.3511,1.3e-4 39.99892,3.4e-4 76.3106,17.83723 100.90118,49.38591 8.90712,10.62982 12.47173,16.57665 24.28585,16.57665 H 435.8164 C 411.53244,321.35365 358.58959,287.37865 300.29948,287.3789 Z"
           sodipodi:nodetypes="ccccccccsccccc"
           inkscape:export-filename="C:\Users\jcotes\OneDrive\Documents\Mes documents\01-MesProjets\SiteCbienFee\Images\Logos\LogoCBFok2.png"
           inkscape:export-xdpi="96"
           inkscape:export-ydpi="96" />
        <text
           style="font-size:3.88055992px;line-height:1.25;font-family:sans-serif;fill:#ffcc01;fill-opacity:1;stroke-width:0.26458001"
           xml:space="preserve"
           id="text898"
           inkscape:export-filename="C:\Users\jcotes\OneDrive\Documents\Mes documents\01-MesProjets\SiteCbienFee\Images\Logos\LogoCBFok2.png"
           inkscape:export-xdpi="96"
           inkscape:export-ydpi="96"
           x="-0.017822579"
           y="0.15644358"
           transform="matrix(3.4150854,0,0,3.4150854,124.13348,252.81457)"><textPath
             xlink:href="#path897"
             id="textPath896"
             style="font-size:3.88055992px;fill:#ffcc01;fill-opacity:1">Prothésiste ongulaire &amp; blanchiment dentaire</textPath></text>
        <text
           style="font-size:4.23332977px;line-height:1.25;font-family:sans-serif;fill:#fecb00;fill-opacity:1;stroke-width:0.26458001"
           xml:space="preserve"
           id="text902"
           inkscape:export-filename="C:\Users\jcotes\OneDrive\Documents\Mes documents\01-MesProjets\SiteCbienFee\Images\Logos\LogoCBFok2.png"
           inkscape:export-xdpi="96"
           inkscape:export-ydpi="96"
           transform="matrix(3.4150854,0,0,3.4150854,124.71796,250.132)"><textPath
             xlink:href="#path905"
             id="textPath900"
             style="font-size:4.23332977px;fill:#fecb00;fill-opacity:1">C Bien Fée   By Ingrid</textPath></text>
      </g>
    </g>
  </g>
</svg>
